<?xml version="1.0" encoding="iso-8859-1"?>
<!-- Generator: Adobe Illustrator 19.0.0, SVG Export Plug-In . SVG Version: 6.00 Build 0)  -->
<svg version="1.1" id="Capa_1" xmlns="http://www.w3.org/2000/svg" xmlns:xlink="http://www.w3.org/1999/xlink" x="0px" y="0px"
	 viewBox="0 0 512.265 512.265" style="enable-background:new 0 0 512.265 512.265;" xml:space="preserve">
<g transform="translate(-1 -1)">
	<path style="fill:#CB8252;" d="M485.789,53.546l-81.214,81.126c-2.119,2.119-4.237,4.237-6.179,6.268h-0.088
		c-4.237,4.414-8.298,8.739-12.006,12.8c-46.698,50.935-56.585,80.772-56.585,80.772v0.088l-10.77,13.859l-52.966-52.966
		l13.771-10.858v-0.088c0,0,29.837-9.887,80.772-56.585c4.061-3.708,8.386-7.768,12.8-12.094c2.03-1.942,4.149-4.061,6.268-6.179
		l81.214-81.126l8.215-9.622l26.478,26.491L485.789,53.546z"/>
	<path style="fill:#FAC176;" d="M335.897,265.673L98.699,502.87c-6.593,6.652-15.572,10.395-24.938,10.395
		s-18.344-3.742-24.938-10.395l-37.429-37.429C4.742,458.848,1,449.87,1,440.503s3.742-18.344,10.394-24.938l237.197-237.197
		c3.277-3.345,7.763-5.231,12.447-5.231c4.683,0,9.169,1.885,12.447,5.231l6.268,6.268l49.964,49.964l6.179,6.179
		c3.345,3.277,5.231,7.764,5.231,12.447C341.127,257.909,339.242,262.395,335.897,265.673z"/>
	<path style="fill:#F18D46;" d="M323.45,228.244l-86.687,61.97L73.805,452.994c-1.665,1.654-3.921,2.575-6.268,2.56
		c-2.35,0.032-4.612-0.892-6.268-2.56c-1.653-1.649-2.582-3.888-2.582-6.223c0-2.335,0.929-4.574,2.582-6.223l162.074-161.986
		l62.676-87.746L323.45,228.244z"/>
	<g>
		<path style="fill:#805333;" d="M398.308,140.939c-4.237,4.414-8.298,8.739-12.006,12.8c-0.177-0.088-0.265-0.265-0.441-0.353
			l-24.982-24.982c-0.088-0.177-0.265-0.265-0.353-0.441c4.061-3.708,8.386-7.768,12.8-12.094l0.088,0.088L398.308,140.939z"/>
		<path style="fill:#805333;" d="M510.683,41.011l-12.447,12.535c-1.649,1.653-3.888,2.582-6.223,2.582
			c-2.335,0-4.574-0.929-6.223-2.582l-24.982-24.982c-3.443-3.469-3.443-9.066,0-12.535l12.447-12.447
			c3.469-3.443,9.066-3.443,12.535,0l6.179,6.268l6.268,6.179l6.268,6.268l6.179,6.268c1.653,1.649,2.582,3.888,2.582,6.223
			C513.265,37.123,512.336,39.362,510.683,41.011L510.683,41.011z"/>
	</g>
	<path style="fill:#D75E72;" d="M204.189,468.972c0.001,8.584-2.482,16.984-7.15,24.188c-3.314,4.932-7.538,9.186-12.447,12.535
		c-13.551,9.03-30.971,9.873-45.331,2.195c-14.36-7.678-23.332-22.634-23.348-38.918c0.016-8.649,2.53-17.109,7.239-24.364
		c3.324-4.929,7.583-9.157,12.535-12.447c13.554-8.966,30.938-9.761,45.253-2.068S204.186,452.721,204.189,468.972z"/>
	<path style="fill:#FDD7AD;" d="M197.039,493.16c-3.314,4.932-7.538,9.186-12.447,12.535l-61.44-61.087
		c3.324-4.929,7.583-9.157,12.535-12.447L197.039,493.16z"/>
</g>
<g>
</g>
<g>
</g>
<g>
</g>
<g>
</g>
<g>
</g>
<g>
</g>
<g>
</g>
<g>
</g>
<g>
</g>
<g>
</g>
<g>
</g>
<g>
</g>
<g>
</g>
<g>
</g>
<g>
</g>
</svg>
