<svg height="512pt" viewBox="0 -87 512.00103 512" width="512pt" xmlns="http://www.w3.org/2000/svg"><path d="m461.15625 337.238281h-410.3125c-28.078125 0-50.84375-22.765625-50.84375-50.84375v-235.546875c0-28.082031 22.765625-50.847656 50.84375-50.847656h410.3125c28.078125 0 50.84375 22.765625 50.84375 50.847656v235.546875c0 28.078125-22.765625 50.84375-50.84375 50.84375zm0 0" fill="#73da8c"/><path d="m135.105469 286.394531v-235.546875c0-28.082031 22.761719-50.847656 50.84375-50.847656h-135.105469c-28.078125 0-50.84375 22.765625-50.84375 50.847656v235.546875c0 28.078125 22.765625 50.84375 50.84375 50.84375h135.105469c-28.082031 0-50.84375-22.765625-50.84375-50.84375zm0 0" fill="#29ce69"/><path d="m240.546875 223.757812h30.90625v113.480469h-30.90625zm0 0" fill="#f4e74d"/><path d="m240.546875 0h30.90625v113.480469h-30.90625zm0 0" fill="#f4e74d"/><path d="m256 239.210938c-38.921875 0-70.589844-31.667969-70.589844-70.589844 0-38.925782 31.664063-70.59375 70.589844-70.59375 38.921875 0 70.589844 31.667968 70.589844 70.59375 0 38.921875-31.667969 70.589844-70.589844 70.589844zm0-110.277344c-21.882812 0-39.6875 17.804687-39.6875 39.6875 0 21.882812 17.804688 39.683594 39.6875 39.683594s39.683594-17.804688 39.683594-39.683594c0-21.882813-17.800782-39.6875-39.683594-39.6875zm0 0" fill="#fcf5af"/><path d="m422.75 229.929688c-33.804688 0-61.308594-27.503907-61.308594-61.308594 0-33.808594 27.503906-61.3125 61.308594-61.3125v30.90625c-16.761719 0-30.402344 13.640625-30.402344 30.40625 0 16.761718 13.640625 30.402344 30.402344 30.402344zm0 0" fill="#f4e74d"/><path d="m512 270.464844h-82.882812c-8.535157 0-15.453126-6.917969-15.453126-15.453125v-172.785157c0-8.53125 6.917969-15.453124 15.453126-15.453124h82.882812v30.90625h-67.429688v141.878906h67.429688zm0 0" fill="#fcf5af"/><path d="m89.246094 229.929688v-30.90625c16.765625 0 30.40625-13.640626 30.40625-30.402344 0-16.765625-13.640625-30.40625-30.40625-30.40625v-30.90625c33.808594 0 61.3125 27.503906 61.3125 61.3125 0 33.804687-27.503906 61.308594-61.3125 61.308594zm0 0" fill="#f4e74d"/><path d="m82.882812 270.464844h-82.882812v-30.90625h67.429688v-141.878906h-67.429688v-30.90625h82.882812c8.535157 0 15.453126 6.921874 15.453126 15.453124v172.785157c0 8.535156-6.917969 15.453125-15.453126 15.453125zm0 0" fill="#fcf5af"/><path d="m0 124.417969h23.507812c8.535157 0 15.453126 6.542969 15.453126 14.613281v59.175781c0 8.070313-6.917969 14.613281-15.453126 14.613281h-23.507812zm0 0" fill="#f4e74d"/><path d="m512 124.417969h-23.507812c-8.535157 0-15.453126 6.542969-15.453126 14.613281v59.175781c0 8.070313 6.917969 14.613281 15.453126 14.613281h23.507812zm0 0" fill="#f4e74d"/><path d="m271.453125 168.621094c0 8.53125-6.917969 15.449218-15.453125 15.449218s-15.453125-6.917968-15.453125-15.449218c0-8.535156 6.917969-15.453125 15.453125-15.453125s15.453125 6.917969 15.453125 15.453125zm0 0" fill="#fcf5af"/></svg>