<svg id="Layer_1" enable-background="new 0 0 512.018 512.018" height="512" viewBox="0 0 512.018 512.018" width="512" xmlns="http://www.w3.org/2000/svg"><g><path d="m496.009 64.018v336c0 17.65-14.35 32-32 32h-416c-17.65 0-32-14.35-32-32v-336c0-17.65 14.35-32 32-32h416c17.65 0 32 14.35 32 32z" fill="#e2e0e0"/><path d="m496.009 64.018v336c0 17.65-14.35 32-32 32h-48c17.65 0 32-14.35 32-32v-336c0-17.65-14.35-32-32-32h48c17.65 0 32 14.35 32 32z" fill="#cecccc"/><path d="m496.009 64.018v56c0 4.42-3.58 8-8 8h-464c-4.42 0-8-3.58-8-8v-56c0-17.65 14.35-32 32-32h416c17.65 0 32 14.35 32 32z" fill="#f79caf"/><path d="m496.009 64.018v56c0 4.42-3.58 8-8 8h-48c4.42 0 8-3.58 8-8v-56c0-17.65-14.35-32-32-32h48c17.65 0 32 14.35 32 32z" fill="#e3889b"/><path d="m136.009 24.018v40c0 13.23-10.77 24-24 24s-24-10.77-24-24v-40c0-13.23 10.77-24 24-24s24 10.77 24 24z" fill="#f3d4b7"/><path d="m136.009 24.018v40c0 18.576-20.252 29.96-36 20.77 7.17-4.15 12-11.91 12-20.77v-40c0-8.86-4.83-16.62-12-20.77 15.754-9.194 36 2.199 36 20.77z" fill="#e1c3a7"/><path d="m424.009 24.018v40c0 13.23-10.77 24-24 24s-24-10.77-24-24v-40c0-13.23 10.77-24 24-24s24 10.77 24 24z" fill="#f3d4b7"/><path d="m424.009 24.018v40c0 18.576-20.252 29.96-36 20.77 7.17-4.15 12-11.91 12-20.77v-40c0-8.86-4.83-16.62-12-20.77 15.754-9.194 36 2.199 36 20.77z" fill="#e1c3a7"/><path d="m436.279 432.018h-174.59l-122.34-122.34c-3.12-3.13-3.12-8.19 0-11.32l65.37-65.37c19.453-19.418 52.29-5.285 52.29 21.66v7.83c0 14.574 8.467 26.116 20.35 31.03 7.81 3.244 9.395 2.51 51.65 2.51v-16c0-4.42 3.58-8 8-8s8 3.58 8 8v23.01l18.41 73.65c2.68 10.72 10.38 19.45 20.65 23.44 26.297 6.588 23.762 5.932 24.51 6.19 11.646 4.338 21.951 13.438 27.7 25.71z" fill="#cecccc"/><path d="m416.009 472.018v16c0 13.23-10.77 24-24 24h-120c-2.12 0-4.16-.84-5.66-2.34l-162.34-162.34c-10.754-10.775-10.583-28.015 0-38.64l10.34-10.34c3.13-3.12 8.19-3.12 11.32 0l165.65 165.66h116.69c4.42 0 8 3.58 8 8z" fill="#b59f89"/><path d="m416.009 472.018v16c0 13.23-10.77 24-24 24h-32c13.23 0 24-10.77 24-24v-16c0-4.42-3.58-8-8-8h32c4.42 0 8 3.58 8 8z" fill="#a18b76"/><path d="m416.009 453.128v18.89c0 4.42-3.58 8-8 8h-120c-2.12 0-4.16-.84-5.66-2.34l-168-168c-3.12-3.13-3.12-8.19 0-11.32l65.37-65.37c19.209-19.175 52.29-5.592 52.29 21.66 0 9.726-.612 17.709 5.68 26.91 6.336 9.304 16.64 14.46 27.29 14.46h47.03c3.67 0 6.87 2.5 7.76 6.06l18.65 74.6c2.68 10.72 10.38 19.45 20.65 23.44 26.087 6.536 23.975 5.984 24.5 6.19 19.4 7.28 32.44 26.1 32.44 46.82z" fill="#acebe2"/><path d="m264.979 296.018h-32c-10.65 0-20.95-5.16-27.29-14.46-6.29-9.2-5.68-17.18-5.68-26.91 0-11.76-6.16-20.98-14.71-26.11 19.4-12.13 46.71 1.35 46.71 26.11 0 9.73-.61 17.71 5.68 26.91 6.34 9.3 16.64 14.46 27.29 14.46z" fill="#98d7ce"/><path d="m416.009 453.128v18.89c0 4.42-3.58 8-8 8h-32c4.42 0 8-3.58 8-8v-18.89c0-20.72-13.04-39.54-32.44-46.82-.52-.21 1.59.35-24.5-6.19-10.27-3.99-17.97-12.72-20.65-23.44l-18.65-74.6c-.89-3.56-4.09-6.06-7.76-6.06h32c3.67 0 6.87 2.5 7.76 6.06l18.65 74.6c2.68 10.72 10.38 19.45 20.65 23.44 26.09 6.54 23.98 5.98 24.5 6.19 19.4 7.28 32.44 26.1 32.44 46.82z" fill="#98d7ce"/><path d="m165.669 349.678c-3.129 3.108-8.167 3.132-11.32 0l-40-40c-3.12-3.13-3.12-8.19 0-11.32l40-40c3.13-3.12 8.19-3.12 11.32 0 25.17 25.18 25.17 66.14 0 91.32z" fill="#f3d4b7"/><path d="m165.669 349.678c-3.129 3.108-8.167 3.132-11.32 0l-6.79-6.79c17.31-22.92 17.31-54.82 0-77.74l6.79-6.79c3.13-3.12 8.19-3.12 11.32 0 25.17 25.18 25.17 66.14 0 91.32z" fill="#e1c3a7"/><path d="m393.669 415.998c0 2.715-1.337 5.413-4.15 7.04-3.268 1.389 2.155.98-52.45.98-23.17 0-43.16-15.73-48.61-38.25-20.812-86.081-19.68-80.56-19.49-82.46 0-.589.271-1.928 1.14-3.48.447-.676.651-.938 1.26-1.55 1.232-1.229 3.201-2.04 3.72-2.04 1.313-.321-.093-.22 28.92-.22v-16c0-4.42 3.58-8 8-8s8 3.58 8 8v23.01l18.41 73.65c2.68 10.72 10.38 19.45 20.65 23.44 26.297 6.588 23.762 5.932 24.51 6.19 5.275 2.001 10.09 4.043 10.09 9.69z" fill="#f8e9d2"/><path d="m393.669 415.998c0 2.71-1.34 5.41-4.15 7.04-2.78 1.18.74 1.06-31.87 1 4.71-.09 4.34-.35 5.87-1 2.81-1.63 4.15-4.33 4.15-7.04 0-5.65-4.81-7.69-10.09-9.69-.75-.26 1.79.4-24.51-6.19-10.27-3.99-17.97-12.72-20.65-23.44l-18.41-73.65v-7.01h10v-16c0-4.42 3.58-8 8-8s8 3.58 8 8v23.01l18.41 73.65c2.68 10.72 10.38 19.45 20.65 23.44 26.3 6.59 23.76 5.93 24.51 6.19 5.28 2 10.09 4.04 10.09 9.69z" fill="#e4d5c1"/></g></svg>